<?xml version="1.0" encoding="utf-8"?>
<!-- Generator: Adobe Illustrator 18.0.0, SVG Export Plug-In . SVG Version: 6.00 Build 0)  -->
<!DOCTYPE svg PUBLIC "-//W3C//DTD SVG 1.1//EN" "http://www.w3.org/Graphics/SVG/1.1/DTD/svg11.dtd">
<svg version="1.1" id="Layer_1" xmlns="http://www.w3.org/2000/svg" xmlns:xlink="http://www.w3.org/1999/xlink" x="0px" y="0px"
	 viewBox="0 0 1440 900" enable-background="new 0 0 1440 900" xml:space="preserve">
<g>
	<rect x="336.6" y="0" fill="#A90533" width="765.2" height="765.2"/>
	<g>
		<g>
			<polygon fill="#A90533" points="1438.4,247.4 0,247.4 0,509.3 0,509.3 1438.4,509.3 			"/>
		</g>
	</g>
	<rect x="17.8" y="265.2" fill="#FFFFFF" width="1402.8" height="226.3"/>
	<g>
		<path fill="#7E7D7E" d="M580.9,394.4c0-15.1-11.1-19.8-20.7-24l-3-1.2c-8-3.4-13.2-6.1-13.2-11.1c0-3.8,1.3-7.8,10.8-7.8
			c9.4,0,17.6,4.3,17.6,4.3l3.9,2v-14.8L575,341c-0.3-0.2-7.1-4.1-20.9-4.1c-15.2,0-24.6,8.2-24.6,21.6c0,15.6,13.2,21,20.3,23.8
			l2.5,1c8.7,3.4,13.9,6,13.9,12.2c0,2.3,0,9.4-15,9.4c-10.1,0-18.5-5.6-18.6-5.6l-4-2.7V412l1.1,0.8c0.4,0.3,8.1,5.5,22,5.5
			C569.2,418.2,580.9,408.7,580.9,394.4"/>
		<path fill="#7E7D7E" d="M690.7,423.6c0,0-2.3,1.2-6.4,1.2c-3.6,0-8.6-1.7-15.5-5.3c-2.6-1.4-5.4-2.9-8.3-4.5
			c13.5-6.4,21.1-19.8,21.1-37.5c0-25.3-15.6-41.6-39.9-41.6c-24.8,0-41.4,16.6-41.4,41.4c0,12.7,4.2,23.8,12,31.3
			c6.4,6.2,16.3,10.1,26.4,10.5c4.4,1.6,8.6,4.5,13.1,7.5c1.6,1,3.2,2.1,4.9,3.2c7.6,4.9,16.2,9.3,27.1,9.3c7.4,0,11-3.3,11.4-3.7
			l1-0.9l-2.4-12.4L690.7,423.6z M640.4,405.6c-18.3,0-24.8-15.5-24.8-28.6c0-17.3,9.5-27.6,25.5-27.6c15.3,0,25.2,10.9,25.2,27.8
			C666.3,387.8,662.9,405.6,640.4,405.6"/>
		<path fill="#7E7D7E" d="M770.7,337.1h-14v2.6c0,0,0.1,14.9,0.1,31.2c0,7.3,0.1,13.6-0.1,16.1c-0.6,13.1-5.9,18.3-19.1,18.3
			c-12.1,0-18.2-5.5-18.4-16.6c-0.2-7.2-0.3-15.7-0.3-22.1c0-8.9,0.3-26.8,0.3-26.8l0-2.6h-14.5l-0.1,2.5c0,0-0.3,19.1-0.3,29.9
			c0,9.5,0,18.4,0.2,22.6c1,17.4,12.5,26.6,33,26.6c20.3,0,32.4-10.8,33.1-29.7c0.1-3.8,0.2-12.8,0.2-18c0-8-0.2-31.4-0.2-31.4
			V337.1z"/>
		<path fill="#7E7D7E" d="M819.1,337.1l-32.3,80.6h15.2l9.7-24.5h26.6l9.6,24.5h15.7l-32.3-80.6H819.1z M817,379.7l7.9-20.4l8,20.5
			L817,379.7z"/>
		<path fill="#7E7D7E" d="M946.6,404.9c-3,0-5.5-0.7-14.6-10.4c-3.4-3.6-6.3-7.4-8.5-10.4c5.4-3,13.3-9.6,13.3-22.6
			c0-6.7-2-12.3-6-16.7c-5.1-5.3-12.7-7.8-23.5-7.8c-7.4,0-21.3,0.1-21.3,0.1h-2.5v80.6h14.6v-29.8c2.9,0.1,7.6,0.3,9.7,0.3
			c0.3,0,0.7,0,1.1,0c2,2.9,7.4,10.3,12.2,16.1c8,9.8,14.7,13.7,22.9,13.7c2.6,0,5.1-0.4,5.2-0.5l2.1-0.4v-12.6l-2.9,0.3
			C948.2,404.9,947.4,404.9,946.6,404.9 M917.5,371.7c-2.5,2.4-5.7,3.3-11.4,3.3c-2.1,0-5.7-0.1-8.2-0.2v-25c2-0.1,4.8-0.2,7.3-0.2
			c6.5,0,10.6,1.2,13.1,3.8c2.1,2.1,3.1,5,3.1,8.7C921.5,366.9,919.3,370,917.5,371.7"/>
		<polygon fill="#7E7D7E" points="984.5,403.5 984.5,383.9 1015.2,383.9 1015.2,369.7 984.5,369.7 984.5,351.2 1016.4,351.2 
			1016.4,337.1 970,337.1 970,417.7 1019,417.7 1019,403.5 		"/>
		<path fill="#7E7D7E" d="M146.8,337.1h-14.1l0.1,2.6c0,0,0.1,14.9,0.1,31.2c0,7.2,0,13.6-0.1,16.1c-0.6,13.1-5.9,18.2-19.1,18.2
			c-12.1,0-18.2-5.4-18.4-16.6c-0.1-7.3-0.2-15.7-0.2-22.1c0-9,0.2-26.8,0.2-26.8l0-2.6H80.8l0,2.5c0,0-0.3,19.1-0.3,29.8
			c0,9.5,0,18.4,0.2,22.6c1,17.4,12.5,26.6,33,26.6c20.3,0,32.4-10.9,33.1-29.7c0.1-3.9,0.2-12.8,0.2-17.9c0-8.1-0.2-31.4-0.2-31.4
			V337.1z"/>
		<polygon fill="#7E7D7E" points="225,390.7 186.1,337.1 173.3,337.1 173.2,417.7 187.2,417.7 187.3,364.3 226.2,417.7 238.9,417.7 
			238.9,337.2 225,337.2 		"/>
		<rect x="269.5" y="337.1" fill="#7E7D7E" width="14.5" height="80.6"/>
		<path fill="#7E7D7E" d="M348.1,335.8c-24.8,0-41.5,16.6-41.5,41.4c0,25.4,15.8,41.8,40.1,41.8c25,0,41.1-16.4,41.1-41.6
			C387.9,352.1,372.3,335.8,348.1,335.8 M346.8,405.4c-18.3,0-24.8-15.3-24.8-28.3c0-17.3,9.6-27.6,25.6-27.6
			c15.2,0,25.1,10.9,25.1,27.8C372.7,394.9,363,405.4,346.8,405.4"/>
		<polygon fill="#7E7D7E" points="459.4,390.7 420.5,337.1 407.8,337.1 407.8,417.7 421.8,417.7 421.8,364.3 460.7,417.7 
			473.4,417.7 473.4,337.1 459.4,337.1 		"/>
		<path fill="#7E7D7E" d="M1128.8,402.7c-0.1,0-7,3.1-19.7,3.1c-19,0-30.3-11.1-30.3-29.7c0-22.6,15.2-27.3,28-27.3
			c14,0,21.6,4,21.7,4.1l2.6,1.4v-13.4l-0.9-0.5c-0.3-0.1-7.1-3.8-23.7-3.8c-26.4,0-41.6,14.9-41.6,40.7c0,24.6,16.9,41.1,42.2,41.1
			c14.3,0,22.9-3.1,23.3-3.2l1.2-0.4l-0.3-13.2L1128.8,402.7z"/>
		<path fill="#7E7D7E" d="M1189.5,337.5h-11.1l-32.2,80.1h13.6l11.1-28.4h25.5l11.1,28.4h14.2l-31.7-79L1189.5,337.5z M1191.7,377.4
			h-16l8-20.4L1191.7,377.4z"/>
		<polygon fill="#7E7D7E" points="1241.6,417.7 1254.7,417.7 1254.7,385.6 1284.7,385.6 1284.7,373 1254.7,373 1254.7,350.2 
			1285.9,350.2 1285.9,337.5 1241.6,337.5 		"/>
		<polygon fill="#7E7D7E" points="1322.9,383.3 1354.1,383.3 1354.1,370.8 1322.9,370.8 1322.9,350.2 1355.2,350.2 1355.2,337.5 
			1309.9,337.5 1309.9,417.7 1357.9,417.7 1357.9,405 1322.9,405 		"/>
	</g>
	<g>
		<g>
			<path fill="#FFFFFF" d="M470.4,121.8c0-0.3,0-0.5,0-0.8c0-4.2,4.7-16.5,20.5-16.5c10.7,0,20.5,5.6,20.5,16.5
				c0,11.3-9.8,16.2-11.5,16.8c1.5,0.5,14.9,4.6,14.9,18.7c0,13.7-11.9,20-24.4,20c-16.4,0-22.6-9.5-22.6-9.5l3.1-7.5
				c0,0,7.1,9.4,18.5,9.4c7.9,0,15.9-2.9,15.9-11.8c0-9.2-9.7-13.9-20.4-14.7v-6.2c8.4-0.6,17.4-5.6,17.4-13.1
				c0-7.2-6-10.5-12.3-10.5c-12.2,0-13,12.2-13,12.2L470.4,121.8z"/>
			<path fill="#FFFFFF" d="M560.5,176.4c-17.1,0-24.7-14.8-24.7-34.9c0-19.7,8.2-37,26.5-37c18.4,0,24.2,17.2,24.2,34.7
				C586.4,161.2,577.9,176.4,560.5,176.4z M561.6,112.2c-12.8,0-16.7,15.7-16.7,28.9c0,14.1,3.7,27.7,16.1,27.7
				c12.7,0,16.3-14.6,16.3-28.9C577.2,127.5,574.2,112.2,561.6,112.2z"/>
			<path fill="#FFFFFF" d="M665.2,144.4v31h-8.6v-31.6l-24.8-37.4h10.3l19.5,29.8l19.4-29.8h9.7L665.2,144.4z"/>
			<path fill="#FFFFFF" d="M714.2,175.4v-69h37.7v8.2h-29.1v21.7h28.1v8.2h-28.1v22.7h31.5v8.2H714.2z"/>
			<path fill="#FFFFFF" d="M820.7,175.4l-10-25.5h-25.1l-10,25.5h-8.8l27.7-69h7.9l27.7,69H820.7z M798.2,118l-9.6,24.3h19.1
				L798.2,118z"/>
			<path fill="#FFFFFF" d="M906.1,175.3c0,0-2.1,0.4-4.3,0.4c-7.3,0-12.8-4-19.2-11.7c-5.4-6.6-11.8-15.7-11.8-15.7
				s-1.3,0.1-2.1,0.1c-2.8,0-11.2-0.3-11.2-0.3v27.3h-8.6v-69c0,0,12.7-0.1,19.5-0.1c9.7,0,16,2.4,19.8,6.5
				c3.2,3.5,4.8,8.2,4.8,13.6c0,10.9-6.7,17.1-13.3,19.8c2.3,3.2,5.6,7.7,9.6,12c8.3,8.9,11.2,10.3,15,10.3c1,0,1.8-0.1,1.8-0.1
				V175.3z M857.5,140.9c0,0,6.9,0.3,9.9,0.3c5.4,0,9.1-0.9,12-3.7c2.4-2.3,4.3-5.8,4.3-10.4c0-4-1.2-7.3-3.5-9.6
				c-2.8-2.9-7.3-4.1-13.6-4.1c-4.2,0-9.1,0.2-9.1,0.2V140.9z"/>
			<path fill="#FFFFFF" d="M957.8,118c0,0-8-4.1-17.3-4.1c-7.4,0-12.2,2.5-12.2,9.5c0,7.2,8.2,10,15.3,13.1
				c9.2,3.9,18.4,7.5,18.4,20.1c0,12.6-10.8,19.4-24.3,19.4c-12.1,0-18.8-4.5-18.8-4.5v-8.6c0,0,8.2,5.6,18.3,5.6
				c8.6,0,16.1-2.5,16.1-10.9c0-8.6-8.8-11.1-16.5-14.2c-8-3.2-17.1-7.8-17.1-19.6c0-11.8,8.9-17.4,20.2-17.4
				c12.1,0,17.9,3.4,17.9,3.4V118z"/>
		</g>
	</g>
	<g>
		<path fill="#FFFFFF" d="M459.9,670.2v-69h37.7v8.2h-29.1v21.7h28.1v8.2h-28.1V662H500v8.2H459.9z"/>
		<path fill="#FFFFFF" d="M558.6,612.7c0,0-8-4.1-17.3-4.1c-7.4,0-12.2,2.5-12.2,9.5c0,7.2,8.2,10,15.3,13.1
			c9.2,3.9,18.4,7.5,18.4,20.1c0,12.6-10.8,19.4-24.3,19.4c-12.1,0-18.8-4.5-18.8-4.5v-8.6c0,0,8.2,5.6,18.3,5.6
			c8.6,0,16.1-2.5,16.1-10.9c0-8.6-8.8-11.1-16.5-14.2c-8-3.2-17.1-7.8-17.1-19.6c0-11.8,8.9-17.4,20.2-17.4
			c12.1,0,17.9,3.4,17.9,3.4V612.7z"/>
		<path fill="#FFFFFF" d="M611.8,609.4v60.8h-8.6v-60.8h-23.9v-8.2h56.9v8.2H611.8z"/>
		<path fill="#FFFFFF" d="M656.1,671c-3.2,0-6.1-2.3-6.1-5.7c0-3.3,2.8-5.8,6.1-5.8c3.4,0,6.1,2.4,6.1,5.8
			C662.2,668.7,659.6,671,656.1,671z"/>
		<path fill="#FFFFFF" d="M734.2,670.2V611c-5,0.8-11.4,4.6-11.4,4.6l-1.1-9.2c0,0,8.6-4.8,21.1-7.1v70.8H734.2z"/>
		<path fill="#FFFFFF" d="M784.9,662.2c0,0,5.4,1.8,12.6,1.8c12.2,0,19.7-7.6,22.7-22.5c0,0-5,4.6-14.9,4.6
			c-13.1,0-21.2-10-21.2-22.7c0-14,8-23.7,22.8-23.7c14.3,0,23.4,10.2,23.4,31.7c0,25-12.9,40.2-32.8,40.2c-7.5,0-13.1-1.7-13.1-1.7
			L784.9,662.2z M821.2,630.4c0-11-2.9-23.2-15-23.2c-8.6,0-13.1,7.1-13.1,15.1c0,11.3,6.5,16.4,14.4,16.4c8.9,0,13.7-4.8,13.7-4.8
			V630.4z"/>
		<path fill="#FFFFFF" d="M876.5,671.2c-13.5,0-23.8-6-23.8-17.1c0-10.5,7.2-16,15.1-20.2c-5.9-3.5-12.4-8.9-12.4-17.5
			c0-11.2,9.3-17.2,22.1-17.2c13,0,21.9,6.1,21.9,16c0,9.8-6.8,14.3-14.1,17.9c7.1,3.7,15.7,9.4,15.7,19.6
			C901.1,664.2,890.8,671.2,876.5,671.2z M875.2,637.9c-7.4,3.4-13.5,8.2-13.5,15.4c0,5.9,6.3,10.5,15.4,10.5
			c8.6,0,14.6-3.9,14.6-10.7C891.8,645.8,884.5,642.2,875.2,637.9z M877.6,606.6c-8.7,0-13,3.9-13,9.1c0,6.4,5.9,10.4,13,13.7
			c6.1-2.6,12.9-6.7,12.9-12.9C890.5,610.9,886.2,606.6,877.6,606.6z"/>
		<path fill="#FFFFFF" d="M938.4,623.9c0,0,10.7,1.1,19.5,6.2c6.6,3.8,12.2,9.8,12.2,19.3c0,14.8-11.1,21.7-24.5,21.7
			c-13.3,0-20.3-7.3-20.3-7.3l3.1-7.5c0,0,6.8,7.2,17.1,7.2c9,0,15.2-4.3,15.2-13c0-12.7-14.3-17.3-29.9-19.3v-30h37.3v8.3h-29.7
			V623.9z"/>
	</g>
</g>
</svg>
